<?xml version="1.0" standalone="no"?>
<!DOCTYPE svg PUBLIC "-//W3C//DTD SVG 20010904//EN"
 "http://www.w3.org/TR/2001/REC-SVG-20010904/DTD/svg10.dtd">
<svg version="1.0" xmlns="http://www.w3.org/2000/svg"
 width="326.000000pt" height="220.000000pt" viewBox="0 0 326.000000 220.000000"
 preserveAspectRatio="xMidYMid meet">

<g transform="translate(0.000000,220.000000) scale(0.100000,-0.100000)"
fill="#000000" stroke="none">
<path d="M0 1100 l0 -1100 1630 0 1630 0 0 1100 0 1100 -1630 0 -1630 0 0
-1100z m888 808 c-3 -7 -19 -16 -36 -20 -51 -14 -66 -48 -73 -170 -7 -121 -19
-149 -74 -175 l-34 -16 31 -16 c57 -29 69 -57 77 -179 8 -124 23 -154 82 -167
16 -4 29 -12 29 -19 0 -18 -99 -4 -138 19 -50 30 -66 69 -70 175 -2 52 -8 107
-14 122 -9 23 -40 45 -88 60 -9 4 1 12 28 23 58 24 72 54 72 157 1 136 37 191
137 208 70 11 75 11 71 -2z m1682 -17 c53 -25 68 -61 76 -184 8 -122 20 -148
80 -167 l36 -12 -38 -18 c-63 -28 -71 -43 -78 -159 -7 -112 -20 -148 -67 -183
-32 -24 -139 -41 -139 -22 0 7 13 15 29 19 16 3 39 17 52 31 21 23 24 37 29
134 6 120 19 151 78 181 l31 16 -31 14 c-58 26 -72 58 -78 177 -3 59 -11 116
-17 127 -11 20 -37 36 -75 49 -10 3 -18 9 -18 14 0 14 90 2 130 -17z m-970
-117 l0 -126 34 30 c41 36 91 47 142 30 63 -21 74 -55 74 -225 0 -141 0 -143
25 -159 14 -9 22 -20 19 -25 -7 -12 -214 -12 -214 0 0 5 9 13 20 16 20 6 20
13 18 168 l-3 162 -28 3 c-16 2 -39 -4 -53 -13 -24 -15 -24 -18 -24 -164 0
-123 3 -150 15 -155 8 -3 15 -10 15 -16 0 -6 -40 -10 -105 -10 -58 0 -105 3
-105 8 0 4 9 13 20 20 19 12 20 23 20 277 0 254 -1 265 -20 277 -35 22 -22 28
65 28 l85 0 0 -126z m-310 -76 c59 -31 82 -78 88 -178 4 -68 1 -85 -21 -132
-33 -74 -78 -108 -143 -108 -31 0 -61 7 -81 20 l-33 20 0 -69 c0 -86 11 -117
44 -125 14 -3 26 -11 26 -16 0 -13 -237 -13 -245 0 -3 6 5 14 18 19 13 5 27
17 31 26 8 22 8 478 0 500 -4 9 -18 21 -32 26 -45 17 -9 30 74 27 74 -3 78 -4
84 -28 5 -22 7 -23 16 -8 11 21 70 47 104 48 14 0 46 -10 70 -22z m1019 -4
c15 -9 37 -32 51 -52 22 -33 25 -47 25 -132 0 -107 -18 -156 -75 -204 -41 -34
-116 -36 -166 -5 l-34 21 0 -71 c0 -82 13 -117 46 -125 13 -4 24 -11 24 -16 0
-6 -50 -10 -125 -10 -69 0 -125 4 -125 8 0 5 11 14 25 20 l25 12 0 265 0 265
-27 11 c-46 17 -11 30 73 27 74 -3 79 -4 82 -27 l4 -23 26 25 c15 14 36 27 47
30 30 8 95 -2 124 -19z m-592 -794 c25 -58 64 -152 88 -210 90 -217 112 -259
140 -266 14 -3 24 -11 22 -18 -6 -17 -297 -21 -297 -3 0 7 15 17 33 22 40 12
45 36 18 98 l-20 47 -96 0 -96 0 -16 -37 c-8 -21 -16 -51 -17 -67 -1 -25 4
-31 32 -39 17 -6 32 -16 32 -23 0 -11 -21 -14 -90 -14 -100 0 -109 7 -61 49
23 20 54 86 130 273 56 135 105 258 111 273 18 48 41 27 87 -85z m-867 85 c0
-8 -8 -15 -18 -15 -10 0 -28 -7 -40 -16 -22 -15 -22 -18 -22 -258 0 -261 -1
-258 53 -271 15 -4 27 -13 27 -21 0 -21 -305 -21 -313 0 -4 10 4 17 24 21 59
13 59 15 59 271 0 221 -1 235 -20 254 -11 11 -29 20 -39 20 -21 0 -34 13 -24
24 3 3 75 6 160 6 129 0 153 -2 153 -15z m465 -11 c54 -27 78 -63 82 -126 8
-111 -70 -177 -218 -186 l-79 -5 0 -94 c0 -52 4 -102 10 -112 5 -10 23 -21 41
-25 18 -3 29 -11 27 -18 -7 -19 -298 -24 -298 -5 0 7 15 20 33 28 l32 14 0
250 0 250 -32 15 c-18 8 -33 21 -33 29 0 11 34 13 198 9 170 -4 203 -7 237
-24z m951 -79 c23 -55 61 -146 84 -203 24 -57 45 -100 48 -97 3 3 42 94 88
203 l82 197 113 0 c81 0 113 -3 117 -12 2 -8 -5 -13 -17 -13 -12 0 -30 -9 -41
-20 -19 -19 -20 -33 -20 -251 0 -129 4 -238 10 -248 5 -10 23 -21 41 -25 18
-3 29 -11 27 -18 -4 -10 -44 -14 -151 -16 -123 -2 -147 0 -147 12 0 8 15 20
34 26 19 6 37 18 40 26 3 9 6 115 5 237 -1 258 15 267 -123 -68 -103 -251
-100 -245 -120 -225 -8 8 -55 112 -105 230 -50 118 -98 229 -105 245 -13 27
-15 10 -15 -177 -1 -114 3 -218 8 -231 6 -16 24 -30 45 -38 20 -7 36 -19 36
-26 0 -18 -201 -14 -207 3 -2 7 9 15 24 19 54 13 53 10 53 271 0 240 0 243
-22 258 -12 9 -30 16 -40 16 -18 0 -24 11 -11 24 4 3 57 5 117 4 l110 -3 42
-100z"/>
<path d="M1125 1635 c-24 -23 -25 -30 -25 -143 0 -111 1 -120 23 -140 50 -47
111 -15 123 65 10 69 -1 188 -20 217 -22 34 -68 35 -101 1z"/>
<path d="M2132 1637 c-20 -21 -22 -33 -22 -143 0 -114 1 -122 24 -143 32 -30
73 -25 100 12 18 25 21 42 21 130 -1 127 -14 161 -65 165 -27 2 -41 -3 -58
-21z"/>
<path d="M1581 757 c-20 -45 -51 -133 -51 -142 0 -3 34 -5 75 -5 41 0 75 3 75
7 0 7 -70 175 -76 182 -2 2 -12 -17 -23 -42z"/>
<path d="M1107 953 c-4 -3 -7 -62 -7 -131 l0 -125 48 7 c71 9 92 38 92 126 0
59 -4 73 -26 99 -20 25 -34 31 -63 31 -21 0 -41 -3 -44 -7z"/>
</g>
</svg>
